<?xml version="1.0" encoding="UTF-8" standalone="no"?>
<svg
   width="67"
   height="80"
   viewBox="0 0 67 80"
   fill="none"
   version="1.1"
   id="svg15"
   xmlns="http://www.w3.org/2000/svg"
   xmlns:svg="http://www.w3.org/2000/svg">
  <g
     clip-path="url(#clip0_4_23)"
     id="g15"
     style="fill:#000000">
    <path
       d="m 13.9257,78.7824 h 29.282 c 1.4134,0 2.5591,-1.1456 2.5591,-2.5589 v -7.6768 h 7.974 c 1.4133,0 2.5591,-1.1457 2.5591,-2.559 V 55.3135 l 8.82114,-4.3963 c 1.37844,-0.6881 1.840767,-2.4292 0.985249,-3.7104 L 56.2999,32.4928 V 28.1426 C 56.2965,12.599 43.6944,2.44141e-4 28.1499,2.44141e-4 12.6055,2.44141e-4 0.00330019,12.599 1.8819726e-7,28.1426 0.63140019,55.9671 10.7603,51.6594 11.1806,62.1884 l 0.186,14.0351 c 0.0094,0.7066 0.2865,1.3464 0.7496,1.8094 0.4631,0.4631 1.1028,0.7495 1.8095,0.7495 z M 40.6486,73.6645 H 16.4848 L 16.1991,59.1231 C 16.4616,52.467 4.4828002,50.8795 5.1181002,28.3885 5.4772002,15.6763 15.4319,5.11757 28.1499,5.11757 c 12.718,0 23.0288,10.30773 23.0318,23.02503 v 5.1179 c 8e-4,0.5053 0.1503,0.9993 0.4299,1.4202 l 8.62926,12.9406 -7.64396,3.8205 c -0.8677,0.4336 -1.4157,1.3204 -1.4152,2.2903 v 9.6967 h -7.974 c -1.4133,0 -2.5591,1.1456 -2.5591,2.5589 z"
       fill="white"
       id="path1"
       style="fill:#1a1a1a" />
    <path
       d="M 26.1656,58.2219 V 38.9335 c -0.1183,0 -0.2366,0.0189 -0.3549,0.0189 -9.7688,-0.0127 -17.0497998,-9.012 -15.0224,-18.5676 0.1944,-0.9135 0.9081,-1.6272 1.8216,-1.8215 8.1062,-1.7312 16.1212,3.2913 18.0979,11.3407 0.0235,-0.0236 0.0426,-0.0497 0.0662,-0.0734 3.6737,-3.6881 8.9688,-5.2588 14.0595,-4.1705 0.9136,0.1943 1.6273,0.908 1.8216,1.8215 2.0273,9.5546 -5.2521,18.5533 -15.02,18.5676 -0.2366,0 -0.4921,-0.0284 -0.7381,-0.0402 V 58.2219 Z M 23.3267,26.0788 c -2.1422,-2.1447 -5.0972,-3.2745 -8.1239,-3.106 -0.3492,6.3399 4.8874,11.5773 11.2277,11.2295 0.1774,-3.0275 -0.9528,-5.9855 -3.1038,-8.1235 z m 15.8078,12.1143 c 2.1533,-2.1374 3.2883,-5.0944 3.118,-8.1235 -6.344,-0.3575 -11.5866,4.8859 -11.2277,11.2295 3.0234,0.1696 5.9728,-0.9606 8.1097,-3.106 z"
       fill="white"
       id="path2"
       style="fill:#1a1a1a" />
  </g>
  <defs
     id="defs15">
    <clipPath
       id="clip0_4_23">
      <rect
         width="256"
         height="80"
         fill="#ffffff"
         id="rect15"
         x="0"
         y="0" />
    </clipPath>
  </defs>
</svg>
